<svg width="883" height="1256" viewBox="0 0 883 1256" fill="none" xmlns="http://www.w3.org/2000/svg">
<path d="M565.304 59.1016C521.101 98.5321 489.135 146.708 504.149 206.7C541.3 355.896 583.725 503.68 627.09 662.883C657.414 634.952 678.273 615.216 699.969 595.963C710.246 586.843 720.016 577.152 728.532 566.736C736.807 556.738 744.157 545.927 749.835 534.149C755.272 522.789 758.947 510.133 760.227 497.766C760.662 494.113 761.008 490.129 760.694 486.323C760.381 482.517 759.827 479.128 758.854 475.499C758.766 475.169 758.589 474.509 758.5 474.179C758.324 473.519 758.235 473.189 758.058 472.529C757.881 471.869 757.793 471.539 757.616 470.879C757.439 470.219 757.351 469.889 757.174 469.229C756.997 468.569 756.82 467.909 756.644 467.249C756.467 466.589 756.29 465.929 756.113 465.269C755.936 464.609 755.759 463.949 755.583 463.29C755.406 462.63 755.229 461.97 754.964 460.98C754.787 460.32 754.522 459.33 754.345 458.67C754.168 458.01 753.903 457.02 753.726 456.36C753.461 455.37 753.284 454.71 753.107 454.05C752.842 453.06 752.665 452.4 752.4 451.41C752.134 450.42 751.958 449.76 751.692 448.77C751.427 447.781 751.162 446.791 750.985 446.131C750.72 445.141 750.454 444.151 750.189 443.161C749.924 442.171 749.659 441.181 749.393 440.191C749.128 439.201 748.863 438.211 748.598 437.221C748.332 436.231 748.067 435.241 747.802 434.251C747.537 433.262 747.271 432.272 746.918 430.952C746.652 429.962 746.299 428.642 746.034 427.652C745.768 426.662 745.415 425.342 745.149 424.352C744.884 423.362 744.53 422.042 744.265 421.052C743.912 419.732 743.646 418.742 743.293 417.423C742.939 416.103 742.674 415.113 742.32 413.793C741.966 412.473 741.701 411.483 741.347 410.163C740.994 408.843 740.64 407.523 740.375 406.533C740.021 405.213 739.668 403.893 739.314 402.573C738.96 401.254 738.606 399.934 738.253 398.614C737.899 397.294 737.545 395.974 737.192 394.654C736.838 393.334 736.484 392.014 736.131 390.694C735.777 389.374 735.423 388.054 735.07 386.735C734.716 385.415 734.362 384.095 733.92 382.445C733.567 381.125 733.125 379.475 732.771 378.155C732.417 376.835 731.975 375.185 731.622 373.865C731.268 372.545 730.826 370.896 730.472 369.576C730.118 368.256 729.676 366.606 729.323 365.286C728.969 363.966 728.527 362.316 728.173 360.996C727.731 359.346 727.377 358.026 726.935 356.377C726.493 354.727 726.14 353.407 725.698 351.757C725.255 350.107 724.902 348.787 724.46 347.137C724.018 345.487 723.664 344.167 723.222 342.517C722.78 340.868 722.426 339.548 721.984 337.898C721.542 336.248 721.188 334.928 720.746 333.278C720.304 331.628 719.862 329.978 719.508 328.658C719.066 327.008 718.624 325.359 718.27 324.039C717.828 322.389 717.386 320.739 716.944 319.089C716.502 317.439 716.06 315.789 715.618 314.139C715.176 312.489 714.734 310.84 714.292 309.19C713.85 307.54 713.408 305.89 712.965 304.24C712.523 302.59 712.081 300.94 711.639 299.29C711.197 297.64 710.755 295.99 710.313 294.341C709.871 292.691 709.429 291.041 708.987 289.391C708.545 287.741 708.102 286.091 707.66 284.441C707.218 282.791 706.776 281.141 706.334 279.492C705.892 277.842 705.45 276.192 705.008 274.542C704.566 272.892 704.124 271.242 703.682 269.592C703.24 267.942 702.797 266.292 702.355 264.643C701.913 262.993 701.471 261.343 701.029 259.693C700.587 258.043 700.145 256.393 699.703 254.743C699.261 253.093 698.819 251.443 698.377 249.794C697.934 248.144 697.492 246.494 697.05 244.844C696.608 243.194 696.166 241.544 695.724 239.894C695.282 238.244 694.84 236.594 694.398 234.945C693.956 233.295 693.514 231.645 693.072 229.995C692.629 228.345 692.187 226.695 691.745 225.045C691.303 223.395 690.861 221.745 690.419 220.096C689.977 218.446 689.535 216.796 689.093 215.146C688.651 213.496 688.209 211.846 687.766 210.196C687.324 208.546 686.882 206.896 686.44 205.246C685.998 203.597 685.556 201.947 685.114 200.297C684.672 198.647 684.23 196.997 683.788 195.347C683.346 193.697 682.904 192.047 682.461 190.397C682.019 188.748 681.577 187.098 681.135 185.448C680.693 183.798 680.251 182.148 679.809 180.498C679.367 178.848 678.925 177.198 678.483 175.548C678.041 173.899 677.598 172.249 677.156 170.599C676.714 168.949 676.272 167.299 675.83 165.649C675.388 163.999 674.946 162.349 674.504 160.699C674.062 159.05 673.62 157.4 673.266 156.08C672.824 154.43 672.382 152.78 672.028 151.46C671.586 149.81 671.144 148.16 670.79 146.84C670.348 145.19 669.995 143.871 669.552 142.221C669.11 140.571 668.757 139.251 668.315 137.601C667.873 135.951 667.519 134.631 667.077 132.981C666.635 131.331 666.281 130.011 665.839 128.362C665.397 126.712 665.043 125.392 664.601 123.742C664.247 122.422 663.805 120.772 663.452 119.452C663.098 118.132 662.656 116.482 662.302 115.162C661.949 113.843 661.507 112.193 661.153 110.873C660.799 109.553 660.357 107.903 660.003 106.583C659.65 105.263 659.208 103.613 658.854 102.293C658.5 100.973 658.147 99.6534 657.705 98.0036C657.351 96.6836 656.997 95.3637 656.555 93.7138C656.201 92.3939 655.848 91.074 655.494 89.7541C655.14 88.4342 654.787 87.1143 654.433 85.7944C654.079 84.4744 653.726 83.1545 653.372 81.8346C653.018 80.5147 652.665 79.1948 652.311 77.8749C651.957 76.555 651.604 75.235 651.25 73.9151C650.896 72.5952 650.543 71.2753 650.277 70.2854C649.924 68.9655 649.659 67.9755 649.305 66.6556C648.951 65.3357 648.686 64.3458 648.332 63.0259C647.979 61.7059 647.713 60.716 647.36 59.3961C647.094 58.4062 646.741 57.0862 646.476 56.0963C646.21 55.1064 645.857 53.7865 645.591 52.7965C645.326 51.8066 644.972 50.4867 644.707 49.4967C644.442 48.5068 644.177 47.5169 643.823 46.197C639.933 31.6779 635.954 16.8289 632.064 2.30985C631.887 1.64989 631.621 0.659959 631.445 2.70249e-06C605.334 22.5577 585.617 41.2804 565.304 59.1016Z" fill="#E71972" fill-opacity="0.9"/>
<path d="M661.138 795.228C669.81 925.176 541.978 1017.78 419.925 968.437C321.301 928.727 282.291 801.602 341.728 713.527C351.821 698.445 361.479 687.015 371.514 678.314C395.451 766.33 420.402 855.489 445.665 948.454C451.374 943.388 456.754 938.41 461.474 933.608C483.564 913.189 500.845 897.241 518.214 881.623C559.081 845.562 589.382 801.722 576.024 746.593C540.175 600.937 499.953 456.1 459.369 304.64C457.247 296.72 455.214 289.131 453.092 281.211C425.622 306.609 404.675 326.015 383.638 345.091C341.719 382.495 311.023 427.502 320.667 483.273C216.068 539.948 149 627.238 127.979 749.228C111.1 847.119 132.118 938.746 190.454 1019.31C313.912 1189.95 542.184 1224.27 710.488 1096.77C718.658 1090.34 726.828 1083.9 734.162 1076.99C797.601 1019.67 843.834 939.024 847.492 852.456C847.96 841.013 848.098 829.659 847.246 818.57C846.395 807.48 844.643 796.986 841.725 786.097C839.073 776.197 836.42 766.298 833.768 756.399C830.143 742.87 826.606 729.67 822.981 716.141C819.179 701.952 815.289 687.433 811.487 673.244C808.038 660.375 804.678 647.836 801.23 634.967C798.931 626.387 796.632 617.808 794.334 609.228C793.715 606.918 793.096 604.609 792.388 601.969C765.731 626.441 745.443 645.671 724.648 664.329C685.012 699.706 654.775 742.468 661.138 795.228Z" fill="#E71972" fill-opacity="0.9"/>
</svg>
